<?xml version="1.0" standalone="no"?>
<!DOCTYPE svg PUBLIC "-//W3C//DTD SVG 20010904//EN"
 "http://www.w3.org/TR/2001/REC-SVG-20010904/DTD/svg10.dtd">
<svg version="1.0" xmlns="http://www.w3.org/2000/svg"
 width="200.000000pt" height="200.000000pt" viewBox="0 0 200.000000 200.000000"
 preserveAspectRatio="xMidYMid meet">
<metadata>
Created by potrace 1.14, written by Peter Selinger 2001-2017
</metadata>
<g transform="translate(0.000000,200.000000) scale(0.100000,-0.100000)"
fill="#000000" stroke="none">
<path d="M980 1704 c32 -83 -18 -212 -128 -328 -145 -154 -173 -303 -79 -415
15 -18 27 -36 27 -41 0 -15 -108 -80 -123 -74 -8 3 -18 1 -22 -5 -5 -10 7 -15
27 -12 4 0 30 -28 58 -63 63 -78 121 -114 155 -96 30 16 39 9 81 -55 33 -53
54 -75 54 -58 0 5 -4 13 -9 18 -10 11 -20 55 -28 131 l-5 51 58 -9 c31 -5 65
-7 73 -5 9 3 3 5 -12 6 -33 1 -27 21 7 21 12 0 32 11 45 26 12 14 42 34 66 44
47 20 52 29 35 60 -6 12 -6 21 -1 25 12 7 19 -4 25 -42 7 -36 -13 -57 -64 -68
-42 -9 -60 -22 -59 -44 0 -12 3 -10 11 6 7 15 23 23 54 28 61 9 82 40 67 98
-9 34 -9 45 2 57 27 30 56 111 57 158 0 59 -15 117 -50 190 l-26 56 -12 -66
c-17 -89 -52 -172 -99 -236 -36 -48 -77 -74 -92 -58 -3 3 22 46 55 96 103 152
128 292 73 414 -31 71 -147 185 -213 209 -15 5 -16 2 -8 -19z m-160 -804 c0
-6 -20 -23 -43 -38 -49 -31 -49 -24 7 -112 l28 -45 -28 30 c-16 17 -41 46 -55
65 l-26 35 48 30 c27 16 49 33 49 37 0 4 5 8 10 8 6 0 10 -5 10 -10z m190
-125 l25 -14 -27 1 c-35 3 -73 -18 -89 -49 -12 -23 -49 -51 -49 -37 0 8 38 63
63 92 24 25 42 27 77 7z m-34 -61 c3 -16 9 -46 14 -66 4 -21 7 -38 5 -38 -2 0
-12 15 -24 33 -11 17 -26 40 -33 49 -10 14 -9 21 7 37 21 25 24 23 31 -15z"/>
<path d="M1101 524 c-26 -19 -73 -116 -74 -154 0 -14 -2 -19 -4 -12 -4 10 -8
10 -19 1 -19 -15 -19 1 0 46 19 44 -1 49 -26 8 -25 -45 -14 -98 16 -74 11 10
19 9 35 0 17 -11 23 -10 41 6 12 11 26 29 32 40 5 11 -1 7 -15 -10 -14 -16
-28 -27 -32 -23 -10 9 5 68 17 68 5 0 8 6 5 13 -5 13 27 82 43 92 16 10 12 -2
-15 -45 -33 -52 -23 -52 11 0 31 47 23 70 -15 44z"/>
<path d="M150 518 c-33 -12 -33 -28 0 -16 36 12 45 7 31 -19 -18 -32 -41 -87
-51 -121 -8 -28 -7 -33 7 -30 9 2 22 22 29 48 12 42 16 45 49 46 l35 1 -6 -48
c-6 -45 -5 -49 14 -49 12 0 24 5 28 12 5 7 3 8 -6 3 -21 -13 -3 72 26 124 28
51 28 51 10 51 -8 0 -23 -18 -33 -40 -16 -36 -22 -40 -55 -40 -44 0 -45 4 -18
45 11 17 20 32 20 35 0 7 -58 6 -80 -2z"/>
<path d="M1218 522 c-14 -2 -32 -10 -39 -18 -10 -13 -8 -13 15 -4 43 16 47 12
29 -25 -9 -19 -21 -35 -25 -35 -5 0 -7 -4 -4 -9 3 -5 -1 -28 -9 -51 -8 -24
-13 -45 -11 -48 7 -7 37 6 34 15 -1 4 3 24 10 43 10 30 17 35 43 36 28 2 30 0
24 -25 -13 -50 -14 -61 -5 -66 11 -7 40 5 40 17 0 5 -4 6 -10 3 -14 -9 -12 10
4 49 l14 34 -40 0 c-22 1 -42 3 -45 5 -2 3 3 19 12 37 12 23 22 30 38 28 12
-2 21 -9 19 -16 -1 -8 2 -11 8 -7 12 7 14 35 3 36 -34 3 -83 3 -105 1z"/>
<path d="M360 485 c-7 -9 -11 -18 -8 -20 3 -3 11 1 18 10 7 9 11 18 8 20 -3 3
-11 -1 -18 -10z"/>
<path d="M800 485 c-7 -9 -11 -18 -8 -20 3 -3 11 1 18 10 7 9 11 18 8 20 -3 3
-11 -1 -18 -10z"/>
<path d="M1334 485 c-9 -22 1 -29 15 -11 8 10 9 16 1 21 -5 3 -13 -1 -16 -10z"/>
<path d="M498 460 c-14 -16 -23 -31 -21 -34 6 -5 -35 -76 -43 -76 -3 0 -2 5 1
11 4 6 -3 21 -15 34 -21 22 -20 52 1 39 5 -3 7 -10 4 -15 -4 -5 -2 -9 4 -9 17
0 21 17 7 30 -11 8 -20 9 -35 0 -25 -13 -27 -33 -5 -55 19 -18 12 -45 -12 -45
-10 0 -14 5 -10 15 3 8 1 15 -4 15 -5 0 -7 8 -4 18 4 9 -3 4 -14 -11 -25 -37
-38 -18 -17 24 20 39 10 52 -16 20 -24 -29 -27 -96 -4 -87 8 3 22 9 30 12 8 3
15 1 15 -5 0 -6 15 -11 34 -11 25 0 40 7 55 26 l21 27 0 -27 c0 -29 3 -31 31
-16 22 12 26 32 4 24 -17 -7 -19 4 -5 40 5 14 17 26 27 26 14 0 15 2 4 9 -10
7 -11 13 -2 30 17 30 0 26 -31 -9z"/>
<path d="M664 434 c8 -20 -11 -54 -30 -54 -8 0 -12 5 -9 10 12 20 -6 50 -30
50 -41 0 -78 -50 -64 -87 10 -29 42 -30 69 -3 11 11 27 20 35 20 8 0 22 11 31
25 19 29 40 34 24 6 -14 -26 -13 -71 2 -71 6 0 20 7 30 17 17 15 18 15 18 0 0
-21 9 -21 38 -1 20 14 23 14 28 0 7 -19 45 -21 62 -4 10 10 17 10 32 1 15 -10
23 -9 42 8 l23 20 -22 -6 c-13 -4 -23 -4 -23 -1 0 18 26 56 44 64 l21 11 -23
0 c-12 1 -30 -9 -40 -21 -32 -41 -70 -78 -80 -78 -17 0 -20 25 -6 58 13 31 49
48 38 17 -6 -15 7 -21 19 -9 12 12 -6 34 -27 34 -23 0 -66 -37 -66 -57 0 -9
-22 -23 -36 -23 -2 0 3 16 11 37 8 20 13 39 9 42 -7 7 -43 -39 -44 -55 0 -16
-27 -37 -34 -26 -3 5 3 26 14 46 l19 38 -24 -6 c-13 -3 -27 -2 -30 4 -10 16
-28 11 -21 -6z m-61 -36 c-6 -38 -26 -63 -41 -54 -13 8 -4 46 16 69 23 26 32
21 25 -15z"/>
<path d="M1590 426 c0 -14 -11 -38 -25 -53 -28 -32 -32 -19 -11 32 23 53 -4
45 -33 -10 -13 -25 -28 -45 -32 -45 -14 0 -11 28 7 61 14 29 14 31 -3 27 -11
-2 -24 -20 -33 -45 -18 -52 -7 -69 32 -48 16 8 27 9 25 3 -8 -40 65 11 79 55
3 9 10 17 15 17 6 0 8 -9 4 -19 -20 -64 -11 -82 29 -56 21 14 24 14 29 0 8
-20 51 -19 68 1 11 14 13 14 21 0 14 -26 64 -19 93 11 14 15 25 32 25 37 0 4
-9 -2 -20 -15 -16 -21 -19 -21 -20 -6 0 10 -7 20 -15 23 -17 7 -21 44 -4 44 6
0 9 -7 5 -15 -3 -9 0 -15 9 -15 20 0 19 26 0 34 -40 15 -61 -30 -29 -65 17
-19 11 -39 -12 -39 -13 0 -18 14 -17 47 1 7 -12 -1 -28 -18 -30 -33 -54 -34
-54 -4 0 11 9 19 25 22 13 2 29 8 34 13 14 14 -1 40 -24 40 -19 0 -26 -5 -69
-60 -25 -33 -37 -20 -17 19 21 40 20 42 -9 35 -15 -4 -25 -2 -25 5 0 6 -4 11
-10 11 -5 0 -10 -11 -10 -24z m145 -16 c-20 -22 -31 -20 -22 5 4 8 14 15 23
15 16 0 16 -2 -1 -20z"/>
<path d="M1346 403 c-13 -21 -21 -43 -19 -50 8 -20 36 -24 52 -8 14 13 13 15
-3 15 -12 0 -16 5 -12 16 3 9 6 20 6 24 0 5 12 16 28 24 l27 15 -27 1 c-21 0
-33 -9 -52 -37z"/>
<path d="M1413 405 c-25 -38 -29 -50 -12 -40 6 4 1 -11 -10 -33 -26 -51 -39
-59 -56 -36 -14 18 -14 18 -15 -3 0 -17 6 -23 23 -23 33 0 63 36 91 108 27 69
16 84 -21 27z"/>
</g>
</svg>
